<mxfile host="www.draw.io" modified="2020-02-18T06:32:29.780Z" agent="Mozilla/5.0 (X11; Linux x86_64) AppleWebKit/537.36 (KHTML, like Gecko) Chrome/80.0.3987.87 Safari/537.36" etag="U1ryP9nw_d055wilxFFu" version="12.7.1" type="github">
  <diagram id="QdcuCyriaGxXcBk4G57F" name="페이지-1">
    <mxGraphModel dx="1422" dy="739" grid="1" gridSize="10" guides="1" tooltips="1" connect="1" arrows="1" fold="1" page="1" pageScale="1" pageWidth="1169" pageHeight="827" math="0" shadow="0">
      <root>
        <mxCell id="0" />
        <mxCell id="1" parent="0" />
        <mxCell id="QD_bkUCgKbVe-fY5yyXg-2" value="A3S" style="rounded=0;whiteSpace=wrap;html=1;" vertex="1" parent="1">
          <mxGeometry x="130" y="180" width="120" height="60" as="geometry" />
        </mxCell>
        <mxCell id="QD_bkUCgKbVe-fY5yyXg-3" value="DES" style="rounded=0;whiteSpace=wrap;html=1;" vertex="1" parent="1">
          <mxGeometry x="330" y="230" width="180" height="130" as="geometry" />
        </mxCell>
        <mxCell id="QD_bkUCgKbVe-fY5yyXg-6" value="" style="endArrow=classic;startArrow=classic;html=1;exitX=1;exitY=0.5;exitDx=0;exitDy=0;entryX=0;entryY=0;entryDx=0;entryDy=0;" edge="1" parent="1" source="QD_bkUCgKbVe-fY5yyXg-2" target="QD_bkUCgKbVe-fY5yyXg-3">
          <mxGeometry width="50" height="50" relative="1" as="geometry">
            <mxPoint x="220" y="340" as="sourcePoint" />
            <mxPoint x="270" y="290" as="targetPoint" />
          </mxGeometry>
        </mxCell>
        <mxCell id="QD_bkUCgKbVe-fY5yyXg-7" value="인증/인가" style="text;html=1;strokeColor=none;fillColor=none;align=center;verticalAlign=middle;whiteSpace=wrap;rounded=0;" vertex="1" parent="1">
          <mxGeometry x="270" y="190" width="60" height="20" as="geometry" />
        </mxCell>
        <mxCell id="QD_bkUCgKbVe-fY5yyXg-8" value="DES&lt;br&gt;DB" style="shape=cylinder;whiteSpace=wrap;html=1;boundedLbl=1;backgroundOutline=1;" vertex="1" parent="1">
          <mxGeometry x="390" y="410" width="60" height="80" as="geometry" />
        </mxCell>
        <mxCell id="QD_bkUCgKbVe-fY5yyXg-9" value="" style="endArrow=classic;startArrow=classic;html=1;entryX=0.5;entryY=1;entryDx=0;entryDy=0;exitX=0.5;exitY=0;exitDx=0;exitDy=0;" edge="1" parent="1" source="QD_bkUCgKbVe-fY5yyXg-8" target="QD_bkUCgKbVe-fY5yyXg-3">
          <mxGeometry width="50" height="50" relative="1" as="geometry">
            <mxPoint x="140" y="480" as="sourcePoint" />
            <mxPoint x="190" y="430" as="targetPoint" />
          </mxGeometry>
        </mxCell>
        <mxCell id="QD_bkUCgKbVe-fY5yyXg-10" value="zeppelin = {UserId}" style="rounded=0;whiteSpace=wrap;html=1;" vertex="1" parent="1">
          <mxGeometry x="610" y="230" width="170" height="40" as="geometry" />
        </mxCell>
        <mxCell id="QD_bkUCgKbVe-fY5yyXg-11" value="" style="endArrow=none;dashed=1;html=1;entryX=0.5;entryY=1;entryDx=0;entryDy=0;" edge="1" parent="1" target="QD_bkUCgKbVe-fY5yyXg-10">
          <mxGeometry width="50" height="50" relative="1" as="geometry">
            <mxPoint x="695" y="330" as="sourcePoint" />
            <mxPoint x="740" y="370" as="targetPoint" />
          </mxGeometry>
        </mxCell>
        <mxCell id="QD_bkUCgKbVe-fY5yyXg-12" value="zeppelin = {UserId}" style="rounded=0;whiteSpace=wrap;html=1;" vertex="1" parent="1">
          <mxGeometry x="610" y="330" width="170" height="40" as="geometry" />
        </mxCell>
        <mxCell id="QD_bkUCgKbVe-fY5yyXg-13" value="Z&lt;br&gt;DB" style="shape=cylinder;whiteSpace=wrap;html=1;boundedLbl=1;backgroundOutline=1;" vertex="1" parent="1">
          <mxGeometry x="830" y="260" width="60" height="80" as="geometry" />
        </mxCell>
        <mxCell id="QD_bkUCgKbVe-fY5yyXg-14" value="" style="endArrow=classic;startArrow=classic;html=1;exitX=1;exitY=0.5;exitDx=0;exitDy=0;entryX=0;entryY=0.5;entryDx=0;entryDy=0;" edge="1" parent="1" source="QD_bkUCgKbVe-fY5yyXg-10" target="QD_bkUCgKbVe-fY5yyXg-13">
          <mxGeometry width="50" height="50" relative="1" as="geometry">
            <mxPoint x="800" y="200" as="sourcePoint" />
            <mxPoint x="850" y="150" as="targetPoint" />
          </mxGeometry>
        </mxCell>
        <mxCell id="QD_bkUCgKbVe-fY5yyXg-15" value="" style="endArrow=classic;startArrow=classic;html=1;exitX=1;exitY=0.5;exitDx=0;exitDy=0;entryX=0;entryY=0.5;entryDx=0;entryDy=0;" edge="1" parent="1" source="QD_bkUCgKbVe-fY5yyXg-12" target="QD_bkUCgKbVe-fY5yyXg-13">
          <mxGeometry width="50" height="50" relative="1" as="geometry">
            <mxPoint x="840" y="390" as="sourcePoint" />
            <mxPoint x="890" y="340" as="targetPoint" />
          </mxGeometry>
        </mxCell>
        <mxCell id="QD_bkUCgKbVe-fY5yyXg-16" value="" style="endArrow=classic;startArrow=classic;html=1;exitX=1;exitY=0.5;exitDx=0;exitDy=0;entryX=0;entryY=0.5;entryDx=0;entryDy=0;" edge="1" parent="1" source="QD_bkUCgKbVe-fY5yyXg-3" target="QD_bkUCgKbVe-fY5yyXg-10">
          <mxGeometry width="50" height="50" relative="1" as="geometry">
            <mxPoint x="530" y="210" as="sourcePoint" />
            <mxPoint x="580" y="160" as="targetPoint" />
          </mxGeometry>
        </mxCell>
        <mxCell id="QD_bkUCgKbVe-fY5yyXg-17" value="" style="endArrow=classic;startArrow=classic;html=1;exitX=1;exitY=0.5;exitDx=0;exitDy=0;entryX=0;entryY=0.5;entryDx=0;entryDy=0;" edge="1" parent="1" source="QD_bkUCgKbVe-fY5yyXg-3" target="QD_bkUCgKbVe-fY5yyXg-12">
          <mxGeometry width="50" height="50" relative="1" as="geometry">
            <mxPoint x="510" y="342.5" as="sourcePoint" />
            <mxPoint x="610" y="330" as="targetPoint" />
          </mxGeometry>
        </mxCell>
      </root>
    </mxGraphModel>
  </diagram>
</mxfile>
